<mxfile host="app.diagrams.net" modified="2024-05-14T12:41:27.633Z" agent="Mozilla/5.0 (Windows NT 10.0; Win64; x64; rv:125.0) Gecko/20100101 Firefox/125.0" etag="fNL5QCizTKqjvBO94zAc" version="24.3.0" type="github">
  <diagram name="第 1 页" id="3Sgioy5IE2B0t4LwasJb">
    <mxGraphModel dx="2874" dy="792" grid="1" gridSize="10" guides="1" tooltips="1" connect="1" arrows="1" fold="1" page="1" pageScale="1" pageWidth="1200" pageHeight="1920" math="0" shadow="0">
      <root>
        <mxCell id="0" />
        <mxCell id="1" parent="0" />
        <mxCell id="YGWv3V7YIwNhVirVJVMV-18" value="" style="edgeStyle=orthogonalEdgeStyle;rounded=0;orthogonalLoop=1;jettySize=auto;html=1;" edge="1" parent="1" source="YGWv3V7YIwNhVirVJVMV-1" target="YGWv3V7YIwNhVirVJVMV-17">
          <mxGeometry relative="1" as="geometry" />
        </mxCell>
        <mxCell id="YGWv3V7YIwNhVirVJVMV-1" value="创建报告" style="rounded=0;whiteSpace=wrap;html=1;" vertex="1" parent="1">
          <mxGeometry x="90" y="80" width="120" height="60" as="geometry" />
        </mxCell>
        <mxCell id="YGWv3V7YIwNhVirVJVMV-10" value="this.region.getEndpoint() + &quot;/reports/&quot; + &quot;2021-06-30&quot; + &quot;/reports&quot;" style="text;html=1;align=center;verticalAlign=middle;resizable=0;points=[];autosize=1;strokeColor=none;fillColor=none;" vertex="1" parent="1">
          <mxGeometry x="-60" y="190" width="370" height="30" as="geometry" />
        </mxCell>
        <mxCell id="YGWv3V7YIwNhVirVJVMV-16" value="" style="endArrow=classic;html=1;rounded=0;entryX=0.642;entryY=1.033;entryDx=0;entryDy=0;entryPerimeter=0;" edge="1" parent="1" source="YGWv3V7YIwNhVirVJVMV-10" target="YGWv3V7YIwNhVirVJVMV-1">
          <mxGeometry width="50" height="50" relative="1" as="geometry">
            <mxPoint x="340" y="440" as="sourcePoint" />
            <mxPoint x="390" y="390" as="targetPoint" />
          </mxGeometry>
        </mxCell>
        <mxCell id="YGWv3V7YIwNhVirVJVMV-22" value="" style="edgeStyle=orthogonalEdgeStyle;rounded=0;orthogonalLoop=1;jettySize=auto;html=1;" edge="1" parent="1" source="YGWv3V7YIwNhVirVJVMV-17" target="YGWv3V7YIwNhVirVJVMV-21">
          <mxGeometry relative="1" as="geometry" />
        </mxCell>
        <mxCell id="YGWv3V7YIwNhVirVJVMV-17" value="报告ID写入延迟队列" style="whiteSpace=wrap;html=1;rounded=0;" vertex="1" parent="1">
          <mxGeometry x="470" y="80" width="120" height="60" as="geometry" />
        </mxCell>
        <mxCell id="YGWv3V7YIwNhVirVJVMV-19" value="等待1分钟后执行，报告文件持续生成中，预计一分钟或更久才生成完" style="text;html=1;align=center;verticalAlign=middle;resizable=0;points=[];autosize=1;strokeColor=none;fillColor=none;" vertex="1" parent="1">
          <mxGeometry x="335" y="190" width="390" height="30" as="geometry" />
        </mxCell>
        <mxCell id="YGWv3V7YIwNhVirVJVMV-20" value="" style="endArrow=classic;html=1;rounded=0;entryX=0.5;entryY=1;entryDx=0;entryDy=0;" edge="1" parent="1" source="YGWv3V7YIwNhVirVJVMV-19" target="YGWv3V7YIwNhVirVJVMV-17">
          <mxGeometry width="50" height="50" relative="1" as="geometry">
            <mxPoint x="830" y="260" as="sourcePoint" />
            <mxPoint x="880" y="210" as="targetPoint" />
          </mxGeometry>
        </mxCell>
        <mxCell id="YGWv3V7YIwNhVirVJVMV-21" value="报告ID信息数据库留档" style="whiteSpace=wrap;html=1;rounded=0;" vertex="1" parent="1">
          <mxGeometry x="770" y="80" width="120" height="60" as="geometry" />
        </mxCell>
        <mxCell id="YGWv3V7YIwNhVirVJVMV-23" value="t_amazon_report" style="text;html=1;align=center;verticalAlign=middle;resizable=0;points=[];autosize=1;strokeColor=none;fillColor=none;" vertex="1" parent="1">
          <mxGeometry x="770" y="190" width="120" height="30" as="geometry" />
        </mxCell>
        <mxCell id="YGWv3V7YIwNhVirVJVMV-24" value="" style="endArrow=classic;html=1;rounded=0;" edge="1" parent="1" source="YGWv3V7YIwNhVirVJVMV-23" target="YGWv3V7YIwNhVirVJVMV-21">
          <mxGeometry width="50" height="50" relative="1" as="geometry">
            <mxPoint x="970" y="220" as="sourcePoint" />
            <mxPoint x="1020" y="170" as="targetPoint" />
          </mxGeometry>
        </mxCell>
        <mxCell id="YGWv3V7YIwNhVirVJVMV-29" value="" style="edgeStyle=orthogonalEdgeStyle;rounded=0;orthogonalLoop=1;jettySize=auto;html=1;" edge="1" parent="1" source="YGWv3V7YIwNhVirVJVMV-25" target="YGWv3V7YIwNhVirVJVMV-28">
          <mxGeometry relative="1" as="geometry" />
        </mxCell>
        <mxCell id="YGWv3V7YIwNhVirVJVMV-25" value="项目启动时，用一个线程消费延迟队列" style="rounded=0;whiteSpace=wrap;html=1;" vertex="1" parent="1">
          <mxGeometry x="90" y="270" width="120" height="60" as="geometry" />
        </mxCell>
        <mxCell id="YGWv3V7YIwNhVirVJVMV-26" value="@PostConstruct" style="text;html=1;align=center;verticalAlign=middle;resizable=0;points=[];autosize=1;strokeColor=none;fillColor=none;" vertex="1" parent="1">
          <mxGeometry x="90" y="370" width="110" height="30" as="geometry" />
        </mxCell>
        <mxCell id="YGWv3V7YIwNhVirVJVMV-27" value="" style="endArrow=classic;html=1;rounded=0;" edge="1" parent="1" source="YGWv3V7YIwNhVirVJVMV-26" target="YGWv3V7YIwNhVirVJVMV-25">
          <mxGeometry width="50" height="50" relative="1" as="geometry">
            <mxPoint x="570" y="430" as="sourcePoint" />
            <mxPoint x="620" y="380" as="targetPoint" />
          </mxGeometry>
        </mxCell>
        <mxCell id="YGWv3V7YIwNhVirVJVMV-31" value="" style="edgeStyle=orthogonalEdgeStyle;rounded=0;orthogonalLoop=1;jettySize=auto;html=1;" edge="1" parent="1" source="YGWv3V7YIwNhVirVJVMV-28" target="YGWv3V7YIwNhVirVJVMV-30">
          <mxGeometry relative="1" as="geometry" />
        </mxCell>
        <mxCell id="YGWv3V7YIwNhVirVJVMV-28" value="delayQueue.take()" style="whiteSpace=wrap;html=1;rounded=0;" vertex="1" parent="1">
          <mxGeometry x="290" y="270" width="120" height="60" as="geometry" />
        </mxCell>
        <mxCell id="YGWv3V7YIwNhVirVJVMV-36" value="" style="edgeStyle=orthogonalEdgeStyle;rounded=0;orthogonalLoop=1;jettySize=auto;html=1;" edge="1" parent="1" source="YGWv3V7YIwNhVirVJVMV-30" target="YGWv3V7YIwNhVirVJVMV-35">
          <mxGeometry relative="1" as="geometry" />
        </mxCell>
        <mxCell id="YGWv3V7YIwNhVirVJVMV-30" value="线程池下载报告" style="whiteSpace=wrap;html=1;rounded=0;" vertex="1" parent="1">
          <mxGeometry x="490" y="270" width="120" height="60" as="geometry" />
        </mxCell>
        <mxCell id="YGWv3V7YIwNhVirVJVMV-33" value="ThreadPoolExecutor(50)" style="text;html=1;align=center;verticalAlign=middle;resizable=0;points=[];autosize=1;strokeColor=none;fillColor=none;" vertex="1" parent="1">
          <mxGeometry x="470" y="360" width="160" height="30" as="geometry" />
        </mxCell>
        <mxCell id="YGWv3V7YIwNhVirVJVMV-34" value="" style="endArrow=classic;html=1;rounded=0;entryX=0.5;entryY=1;entryDx=0;entryDy=0;" edge="1" parent="1" source="YGWv3V7YIwNhVirVJVMV-33" target="YGWv3V7YIwNhVirVJVMV-30">
          <mxGeometry width="50" height="50" relative="1" as="geometry">
            <mxPoint x="730" y="410" as="sourcePoint" />
            <mxPoint x="780" y="360" as="targetPoint" />
          </mxGeometry>
        </mxCell>
        <mxCell id="YGWv3V7YIwNhVirVJVMV-38" value="" style="edgeStyle=orthogonalEdgeStyle;rounded=0;orthogonalLoop=1;jettySize=auto;html=1;" edge="1" parent="1" source="YGWv3V7YIwNhVirVJVMV-35" target="YGWv3V7YIwNhVirVJVMV-37">
          <mxGeometry relative="1" as="geometry" />
        </mxCell>
        <mxCell id="YGWv3V7YIwNhVirVJVMV-35" value="下载报告" style="whiteSpace=wrap;html=1;rounded=0;" vertex="1" parent="1">
          <mxGeometry x="690" y="270" width="120" height="60" as="geometry" />
        </mxCell>
        <mxCell id="YGWv3V7YIwNhVirVJVMV-40" value="" style="edgeStyle=orthogonalEdgeStyle;rounded=0;orthogonalLoop=1;jettySize=auto;html=1;" edge="1" parent="1" source="YGWv3V7YIwNhVirVJVMV-37" target="YGWv3V7YIwNhVirVJVMV-39">
          <mxGeometry relative="1" as="geometry" />
        </mxCell>
        <mxCell id="YGWv3V7YIwNhVirVJVMV-43" value="Y" style="edgeLabel;html=1;align=center;verticalAlign=middle;resizable=0;points=[];" vertex="1" connectable="0" parent="YGWv3V7YIwNhVirVJVMV-40">
          <mxGeometry x="-0.12" y="1" relative="1" as="geometry">
            <mxPoint as="offset" />
          </mxGeometry>
        </mxCell>
        <mxCell id="YGWv3V7YIwNhVirVJVMV-37" value="下载失败" style="rhombus;whiteSpace=wrap;html=1;rounded=0;" vertex="1" parent="1">
          <mxGeometry x="860" y="260" width="80" height="80" as="geometry" />
        </mxCell>
        <mxCell id="YGWv3V7YIwNhVirVJVMV-42" value="" style="edgeStyle=orthogonalEdgeStyle;rounded=0;orthogonalLoop=1;jettySize=auto;html=1;" edge="1" parent="1" source="YGWv3V7YIwNhVirVJVMV-39" target="YGWv3V7YIwNhVirVJVMV-41">
          <mxGeometry relative="1" as="geometry" />
        </mxCell>
        <mxCell id="YGWv3V7YIwNhVirVJVMV-44" value="Y" style="edgeLabel;html=1;align=center;verticalAlign=middle;resizable=0;points=[];" vertex="1" connectable="0" parent="YGWv3V7YIwNhVirVJVMV-42">
          <mxGeometry x="-0.1333" y="2" relative="1" as="geometry">
            <mxPoint as="offset" />
          </mxGeometry>
        </mxCell>
        <mxCell id="YGWv3V7YIwNhVirVJVMV-46" value="" style="edgeStyle=orthogonalEdgeStyle;rounded=0;orthogonalLoop=1;jettySize=auto;html=1;" edge="1" parent="1" source="YGWv3V7YIwNhVirVJVMV-39">
          <mxGeometry relative="1" as="geometry">
            <mxPoint x="1045" y="370" as="targetPoint" />
          </mxGeometry>
        </mxCell>
        <mxCell id="YGWv3V7YIwNhVirVJVMV-39" value="失败次数 &amp;lt;= 2" style="rhombus;whiteSpace=wrap;html=1;rounded=0;" vertex="1" parent="1">
          <mxGeometry x="990" y="260" width="110" height="80" as="geometry" />
        </mxCell>
        <mxCell id="YGWv3V7YIwNhVirVJVMV-41" value="重新写入延迟队列" style="whiteSpace=wrap;html=1;rounded=0;" vertex="1" parent="1">
          <mxGeometry x="1160" y="270" width="120" height="60" as="geometry" />
        </mxCell>
        <mxCell id="YGWv3V7YIwNhVirVJVMV-47" value="写入失败队列" style="whiteSpace=wrap;html=1;rounded=0;" vertex="1" parent="1">
          <mxGeometry x="990" y="370" width="120" height="60" as="geometry" />
        </mxCell>
        <mxCell id="YGWv3V7YIwNhVirVJVMV-53" value="" style="edgeStyle=orthogonalEdgeStyle;rounded=0;orthogonalLoop=1;jettySize=auto;html=1;" edge="1" parent="1" source="YGWv3V7YIwNhVirVJVMV-48" target="YGWv3V7YIwNhVirVJVMV-52">
          <mxGeometry relative="1" as="geometry" />
        </mxCell>
        <mxCell id="YGWv3V7YIwNhVirVJVMV-48" value="下载报告" style="whiteSpace=wrap;html=1;rounded=0;" vertex="1" parent="1">
          <mxGeometry x="90" y="550" width="120" height="60" as="geometry" />
        </mxCell>
        <mxCell id="YGWv3V7YIwNhVirVJVMV-49" value="" style="endArrow=none;dashed=1;html=1;dashPattern=1 3;strokeWidth=2;rounded=0;exitX=0.5;exitY=0;exitDx=0;exitDy=0;entryX=0.575;entryY=0.983;entryDx=0;entryDy=0;entryPerimeter=0;" edge="1" parent="1" source="YGWv3V7YIwNhVirVJVMV-48" target="YGWv3V7YIwNhVirVJVMV-35">
          <mxGeometry width="50" height="50" relative="1" as="geometry">
            <mxPoint x="630" y="470" as="sourcePoint" />
            <mxPoint x="680" y="420" as="targetPoint" />
          </mxGeometry>
        </mxCell>
        <mxCell id="YGWv3V7YIwNhVirVJVMV-50" value="this.region.getEndpoint() + &quot;/reports/&quot; + &quot;2021-06-30&quot; + &quot;/reports/&quot; + Util.escapeString(this.reportId)" style="text;html=1;align=center;verticalAlign=middle;resizable=0;points=[];autosize=1;strokeColor=none;fillColor=none;" vertex="1" parent="1">
          <mxGeometry x="-240" y="660" width="560" height="30" as="geometry" />
        </mxCell>
        <mxCell id="YGWv3V7YIwNhVirVJVMV-51" value="" style="endArrow=classic;html=1;rounded=0;" edge="1" parent="1" source="YGWv3V7YIwNhVirVJVMV-50" target="YGWv3V7YIwNhVirVJVMV-48">
          <mxGeometry width="50" height="50" relative="1" as="geometry">
            <mxPoint x="610" y="510" as="sourcePoint" />
            <mxPoint x="660" y="460" as="targetPoint" />
          </mxGeometry>
        </mxCell>
        <mxCell id="YGWv3V7YIwNhVirVJVMV-55" value="" style="edgeStyle=orthogonalEdgeStyle;rounded=0;orthogonalLoop=1;jettySize=auto;html=1;" edge="1" parent="1" source="YGWv3V7YIwNhVirVJVMV-52" target="YGWv3V7YIwNhVirVJVMV-54">
          <mxGeometry relative="1" as="geometry" />
        </mxCell>
        <mxCell id="YGWv3V7YIwNhVirVJVMV-52" value="分批处理报告中的listing" style="whiteSpace=wrap;html=1;rounded=0;" vertex="1" parent="1">
          <mxGeometry x="290" y="550" width="120" height="60" as="geometry" />
        </mxCell>
        <mxCell id="YGWv3V7YIwNhVirVJVMV-57" value="" style="edgeStyle=orthogonalEdgeStyle;rounded=0;orthogonalLoop=1;jettySize=auto;html=1;" edge="1" parent="1" source="YGWv3V7YIwNhVirVJVMV-54" target="YGWv3V7YIwNhVirVJVMV-56">
          <mxGeometry relative="1" as="geometry" />
        </mxCell>
        <mxCell id="YGWv3V7YIwNhVirVJVMV-54" value="处理库存同步信息" style="whiteSpace=wrap;html=1;rounded=0;" vertex="1" parent="1">
          <mxGeometry x="490" y="550" width="120" height="60" as="geometry" />
        </mxCell>
        <mxCell id="YGWv3V7YIwNhVirVJVMV-59" value="" style="edgeStyle=orthogonalEdgeStyle;rounded=0;orthogonalLoop=1;jettySize=auto;html=1;" edge="1" parent="1" source="YGWv3V7YIwNhVirVJVMV-56" target="YGWv3V7YIwNhVirVJVMV-58">
          <mxGeometry relative="1" as="geometry" />
        </mxCell>
        <mxCell id="YGWv3V7YIwNhVirVJVMV-56" value="处理spu信息" style="whiteSpace=wrap;html=1;rounded=0;" vertex="1" parent="1">
          <mxGeometry x="690" y="550" width="120" height="60" as="geometry" />
        </mxCell>
        <mxCell id="YGWv3V7YIwNhVirVJVMV-58" value="删除报告表" style="whiteSpace=wrap;html=1;rounded=0;" vertex="1" parent="1">
          <mxGeometry x="890" y="550" width="120" height="60" as="geometry" />
        </mxCell>
        <mxCell id="YGWv3V7YIwNhVirVJVMV-60" value="t_amazon_report" style="text;html=1;align=center;verticalAlign=middle;resizable=0;points=[];autosize=1;strokeColor=none;fillColor=none;" vertex="1" parent="1">
          <mxGeometry x="890" y="650" width="120" height="30" as="geometry" />
        </mxCell>
        <mxCell id="YGWv3V7YIwNhVirVJVMV-61" value="" style="endArrow=classic;html=1;rounded=0;" edge="1" parent="1" source="YGWv3V7YIwNhVirVJVMV-60" target="YGWv3V7YIwNhVirVJVMV-58">
          <mxGeometry width="50" height="50" relative="1" as="geometry">
            <mxPoint x="940" y="650" as="sourcePoint" />
            <mxPoint x="990" y="600" as="targetPoint" />
          </mxGeometry>
        </mxCell>
        <mxCell id="YGWv3V7YIwNhVirVJVMV-65" value="" style="edgeStyle=orthogonalEdgeStyle;rounded=0;orthogonalLoop=1;jettySize=auto;html=1;" edge="1" parent="1" source="YGWv3V7YIwNhVirVJVMV-62" target="YGWv3V7YIwNhVirVJVMV-64">
          <mxGeometry relative="1" as="geometry" />
        </mxCell>
        <mxCell id="YGWv3V7YIwNhVirVJVMV-62" value="分批处理报告中的listing" style="whiteSpace=wrap;html=1;rounded=0;" vertex="1" parent="1">
          <mxGeometry x="85" y="780" width="120" height="60" as="geometry" />
        </mxCell>
        <mxCell id="YGWv3V7YIwNhVirVJVMV-63" value="" style="endArrow=none;dashed=1;html=1;dashPattern=1 3;strokeWidth=2;rounded=0;" edge="1" parent="1" source="YGWv3V7YIwNhVirVJVMV-62" target="YGWv3V7YIwNhVirVJVMV-52">
          <mxGeometry width="50" height="50" relative="1" as="geometry">
            <mxPoint x="540" y="830" as="sourcePoint" />
            <mxPoint x="590" y="780" as="targetPoint" />
          </mxGeometry>
        </mxCell>
        <mxCell id="YGWv3V7YIwNhVirVJVMV-69" value="" style="edgeStyle=orthogonalEdgeStyle;rounded=0;orthogonalLoop=1;jettySize=auto;html=1;" edge="1" parent="1" source="YGWv3V7YIwNhVirVJVMV-64" target="YGWv3V7YIwNhVirVJVMV-68">
          <mxGeometry relative="1" as="geometry" />
        </mxCell>
        <mxCell id="YGWv3V7YIwNhVirVJVMV-64" value="获取报告文档" style="whiteSpace=wrap;html=1;rounded=0;" vertex="1" parent="1">
          <mxGeometry x="285" y="780" width="120" height="60" as="geometry" />
        </mxCell>
        <mxCell id="YGWv3V7YIwNhVirVJVMV-66" value="this.region.getEndpoint() + &quot;/reports/&quot; + &quot;2021-06-30&quot; + &quot;/documents/&quot; + Util.escapeString(this.reportDocumentId)" style="text;html=1;align=center;verticalAlign=middle;resizable=0;points=[];autosize=1;strokeColor=none;fillColor=none;" vertex="1" parent="1">
          <mxGeometry x="20" y="890" width="640" height="30" as="geometry" />
        </mxCell>
        <mxCell id="YGWv3V7YIwNhVirVJVMV-67" value="" style="endArrow=classic;html=1;rounded=0;" edge="1" parent="1" source="YGWv3V7YIwNhVirVJVMV-66" target="YGWv3V7YIwNhVirVJVMV-64">
          <mxGeometry width="50" height="50" relative="1" as="geometry">
            <mxPoint x="620" y="1060" as="sourcePoint" />
            <mxPoint x="670" y="1010" as="targetPoint" />
          </mxGeometry>
        </mxCell>
        <mxCell id="YGWv3V7YIwNhVirVJVMV-71" value="" style="edgeStyle=orthogonalEdgeStyle;rounded=0;orthogonalLoop=1;jettySize=auto;html=1;" edge="1" parent="1" source="YGWv3V7YIwNhVirVJVMV-68" target="YGWv3V7YIwNhVirVJVMV-70">
          <mxGeometry relative="1" as="geometry" />
        </mxCell>
        <mxCell id="YGWv3V7YIwNhVirVJVMV-68" value="流式模式解析大文件" style="whiteSpace=wrap;html=1;rounded=0;" vertex="1" parent="1">
          <mxGeometry x="510" y="780" width="120" height="60" as="geometry" />
        </mxCell>
        <mxCell id="YGWv3V7YIwNhVirVJVMV-73" value="" style="edgeStyle=orthogonalEdgeStyle;rounded=0;orthogonalLoop=1;jettySize=auto;html=1;" edge="1" parent="1" source="YGWv3V7YIwNhVirVJVMV-70" target="YGWv3V7YIwNhVirVJVMV-72">
          <mxGeometry relative="1" as="geometry" />
        </mxCell>
        <mxCell id="YGWv3V7YIwNhVirVJVMV-70" value="解析成一个csv表格" style="whiteSpace=wrap;html=1;rounded=0;" vertex="1" parent="1">
          <mxGeometry x="710" y="780" width="120" height="60" as="geometry" />
        </mxCell>
        <mxCell id="YGWv3V7YIwNhVirVJVMV-75" value="" style="edgeStyle=orthogonalEdgeStyle;rounded=0;orthogonalLoop=1;jettySize=auto;html=1;" edge="1" parent="1" source="YGWv3V7YIwNhVirVJVMV-72" target="YGWv3V7YIwNhVirVJVMV-74">
          <mxGeometry relative="1" as="geometry" />
        </mxCell>
        <mxCell id="YGWv3V7YIwNhVirVJVMV-72" value="按行读取到内存，分批，每批20个" style="whiteSpace=wrap;html=1;rounded=0;" vertex="1" parent="1">
          <mxGeometry x="910" y="780" width="120" height="60" as="geometry" />
        </mxCell>
        <mxCell id="YGWv3V7YIwNhVirVJVMV-79" value="" style="edgeStyle=orthogonalEdgeStyle;rounded=0;orthogonalLoop=1;jettySize=auto;html=1;" edge="1" parent="1" source="YGWv3V7YIwNhVirVJVMV-74" target="YGWv3V7YIwNhVirVJVMV-78">
          <mxGeometry relative="1" as="geometry" />
        </mxCell>
        <mxCell id="YGWv3V7YIwNhVirVJVMV-74" value="线程池处理listing落库" style="whiteSpace=wrap;html=1;rounded=0;" vertex="1" parent="1">
          <mxGeometry x="1110" y="780" width="120" height="60" as="geometry" />
        </mxCell>
        <mxCell id="YGWv3V7YIwNhVirVJVMV-76" value="ThreadPoolExecutor(2)" style="text;html=1;align=center;verticalAlign=middle;resizable=0;points=[];autosize=1;strokeColor=none;fillColor=none;" vertex="1" parent="1">
          <mxGeometry x="1090" y="880" width="150" height="30" as="geometry" />
        </mxCell>
        <mxCell id="YGWv3V7YIwNhVirVJVMV-77" value="" style="endArrow=classic;html=1;rounded=0;entryX=0.5;entryY=1;entryDx=0;entryDy=0;" edge="1" parent="1" source="YGWv3V7YIwNhVirVJVMV-76" target="YGWv3V7YIwNhVirVJVMV-74">
          <mxGeometry width="50" height="50" relative="1" as="geometry">
            <mxPoint x="1160" y="840" as="sourcePoint" />
            <mxPoint x="1210" y="790" as="targetPoint" />
          </mxGeometry>
        </mxCell>
        <mxCell id="YGWv3V7YIwNhVirVJVMV-83" value="" style="edgeStyle=orthogonalEdgeStyle;rounded=0;orthogonalLoop=1;jettySize=auto;html=1;" edge="1" parent="1" source="YGWv3V7YIwNhVirVJVMV-78" target="YGWv3V7YIwNhVirVJVMV-82">
          <mxGeometry relative="1" as="geometry" />
        </mxCell>
        <mxCell id="YGWv3V7YIwNhVirVJVMV-78" value="批量获取listing详情" style="whiteSpace=wrap;html=1;rounded=0;" vertex="1" parent="1">
          <mxGeometry x="1310" y="780" width="120" height="60" as="geometry" />
        </mxCell>
        <mxCell id="YGWv3V7YIwNhVirVJVMV-80" value="this.region.getEndpoint() + &quot;/catalog/2022-04-01/items&quot;" style="text;html=1;align=center;verticalAlign=middle;resizable=0;points=[];autosize=1;strokeColor=none;fillColor=none;" vertex="1" parent="1">
          <mxGeometry x="1280" y="880" width="320" height="30" as="geometry" />
        </mxCell>
        <mxCell id="YGWv3V7YIwNhVirVJVMV-81" value="" style="endArrow=classic;html=1;rounded=0;entryX=0.5;entryY=1;entryDx=0;entryDy=0;" edge="1" parent="1" source="YGWv3V7YIwNhVirVJVMV-80" target="YGWv3V7YIwNhVirVJVMV-78">
          <mxGeometry width="50" height="50" relative="1" as="geometry">
            <mxPoint x="1710" y="1010" as="sourcePoint" />
            <mxPoint x="1760" y="960" as="targetPoint" />
          </mxGeometry>
        </mxCell>
        <mxCell id="YGWv3V7YIwNhVirVJVMV-82" value="数据模型转换及落库" style="whiteSpace=wrap;html=1;rounded=0;" vertex="1" parent="1">
          <mxGeometry x="1570" y="780" width="120" height="60" as="geometry" />
        </mxCell>
        <mxCell id="YGWv3V7YIwNhVirVJVMV-87" value="" style="edgeStyle=orthogonalEdgeStyle;rounded=0;orthogonalLoop=1;jettySize=auto;html=1;" edge="1" parent="1" source="YGWv3V7YIwNhVirVJVMV-84" target="YGWv3V7YIwNhVirVJVMV-86">
          <mxGeometry relative="1" as="geometry" />
        </mxCell>
        <mxCell id="YGWv3V7YIwNhVirVJVMV-84" value="数据模型转换及落库" style="whiteSpace=wrap;html=1;rounded=0;" vertex="1" parent="1">
          <mxGeometry x="90" y="1060" width="120" height="60" as="geometry" />
        </mxCell>
        <mxCell id="YGWv3V7YIwNhVirVJVMV-85" value="" style="endArrow=none;dashed=1;html=1;dashPattern=1 3;strokeWidth=2;rounded=0;" edge="1" parent="1" source="YGWv3V7YIwNhVirVJVMV-84" target="YGWv3V7YIwNhVirVJVMV-82">
          <mxGeometry width="50" height="50" relative="1" as="geometry">
            <mxPoint x="790" y="1040" as="sourcePoint" />
            <mxPoint x="840" y="990" as="targetPoint" />
          </mxGeometry>
        </mxCell>
        <mxCell id="YGWv3V7YIwNhVirVJVMV-89" value="" style="edgeStyle=orthogonalEdgeStyle;rounded=0;orthogonalLoop=1;jettySize=auto;html=1;" edge="1" parent="1" source="YGWv3V7YIwNhVirVJVMV-86" target="YGWv3V7YIwNhVirVJVMV-88">
          <mxGeometry relative="1" as="geometry" />
        </mxCell>
        <mxCell id="YGWv3V7YIwNhVirVJVMV-86" value="封装基本信息" style="whiteSpace=wrap;html=1;rounded=0;" vertex="1" parent="1">
          <mxGeometry x="290" y="1060" width="120" height="60" as="geometry" />
        </mxCell>
        <mxCell id="YGWv3V7YIwNhVirVJVMV-93" value="" style="edgeStyle=orthogonalEdgeStyle;rounded=0;orthogonalLoop=1;jettySize=auto;html=1;" edge="1" parent="1" source="YGWv3V7YIwNhVirVJVMV-88" target="YGWv3V7YIwNhVirVJVMV-92">
          <mxGeometry relative="1" as="geometry" />
        </mxCell>
        <mxCell id="YGWv3V7YIwNhVirVJVMV-88" value="获取存储币种、五点描述等" style="whiteSpace=wrap;html=1;rounded=0;" vertex="1" parent="1">
          <mxGeometry x="490" y="1060" width="120" height="60" as="geometry" />
        </mxCell>
        <mxCell id="YGWv3V7YIwNhVirVJVMV-90" value="this.region.getEndpoint() + &quot;/listings/2021-08-01/items/&quot; + Util.escapeString(this.sellerId) + &quot;/&quot; + Util.escapeString(this.sku)" style="text;html=1;align=center;verticalAlign=middle;resizable=0;points=[];autosize=1;strokeColor=none;fillColor=none;" vertex="1" parent="1">
          <mxGeometry x="220" y="1170" width="690" height="30" as="geometry" />
        </mxCell>
        <mxCell id="YGWv3V7YIwNhVirVJVMV-91" value="" style="endArrow=classic;html=1;rounded=0;" edge="1" parent="1" source="YGWv3V7YIwNhVirVJVMV-90" target="YGWv3V7YIwNhVirVJVMV-88">
          <mxGeometry width="50" height="50" relative="1" as="geometry">
            <mxPoint x="890" y="1200" as="sourcePoint" />
            <mxPoint x="940" y="1150" as="targetPoint" />
          </mxGeometry>
        </mxCell>
        <mxCell id="YGWv3V7YIwNhVirVJVMV-95" value="" style="edgeStyle=orthogonalEdgeStyle;rounded=0;orthogonalLoop=1;jettySize=auto;html=1;" edge="1" parent="1" source="YGWv3V7YIwNhVirVJVMV-92" target="YGWv3V7YIwNhVirVJVMV-94">
          <mxGeometry relative="1" as="geometry" />
        </mxCell>
        <mxCell id="YGWv3V7YIwNhVirVJVMV-114" value="Y" style="edgeLabel;html=1;align=center;verticalAlign=middle;resizable=0;points=[];" vertex="1" connectable="0" parent="YGWv3V7YIwNhVirVJVMV-95">
          <mxGeometry x="-0.1333" y="1" relative="1" as="geometry">
            <mxPoint as="offset" />
          </mxGeometry>
        </mxCell>
        <mxCell id="YGWv3V7YIwNhVirVJVMV-118" style="edgeStyle=orthogonalEdgeStyle;rounded=0;orthogonalLoop=1;jettySize=auto;html=1;exitX=0.5;exitY=1;exitDx=0;exitDy=0;entryX=0;entryY=0.5;entryDx=0;entryDy=0;" edge="1" parent="1" source="YGWv3V7YIwNhVirVJVMV-92" target="YGWv3V7YIwNhVirVJVMV-112">
          <mxGeometry relative="1" as="geometry" />
        </mxCell>
        <mxCell id="YGWv3V7YIwNhVirVJVMV-119" value="N" style="edgeLabel;html=1;align=center;verticalAlign=middle;resizable=0;points=[];" vertex="1" connectable="0" parent="YGWv3V7YIwNhVirVJVMV-118">
          <mxGeometry x="0.173" y="1" relative="1" as="geometry">
            <mxPoint as="offset" />
          </mxGeometry>
        </mxCell>
        <mxCell id="YGWv3V7YIwNhVirVJVMV-92" value="存在父Asion" style="rhombus;whiteSpace=wrap;html=1;rounded=0;" vertex="1" parent="1">
          <mxGeometry x="725" y="1050" width="80" height="80" as="geometry" />
        </mxCell>
        <mxCell id="YGWv3V7YIwNhVirVJVMV-97" value="" style="edgeStyle=orthogonalEdgeStyle;rounded=0;orthogonalLoop=1;jettySize=auto;html=1;" edge="1" parent="1" source="YGWv3V7YIwNhVirVJVMV-94" target="YGWv3V7YIwNhVirVJVMV-96">
          <mxGeometry relative="1" as="geometry" />
        </mxCell>
        <mxCell id="YGWv3V7YIwNhVirVJVMV-94" value="处理父asin" style="whiteSpace=wrap;html=1;rounded=0;" vertex="1" parent="1">
          <mxGeometry x="865" y="1060" width="120" height="60" as="geometry" />
        </mxCell>
        <mxCell id="YGWv3V7YIwNhVirVJVMV-99" value="" style="edgeStyle=orthogonalEdgeStyle;rounded=0;orthogonalLoop=1;jettySize=auto;html=1;" edge="1" parent="1" source="YGWv3V7YIwNhVirVJVMV-96" target="YGWv3V7YIwNhVirVJVMV-98">
          <mxGeometry relative="1" as="geometry" />
        </mxCell>
        <mxCell id="YGWv3V7YIwNhVirVJVMV-96" value="获取颜色，名称，品牌,列目等" style="whiteSpace=wrap;html=1;rounded=0;" vertex="1" parent="1">
          <mxGeometry x="1065" y="1060" width="120" height="60" as="geometry" />
        </mxCell>
        <mxCell id="YGWv3V7YIwNhVirVJVMV-103" value="" style="edgeStyle=orthogonalEdgeStyle;rounded=0;orthogonalLoop=1;jettySize=auto;html=1;" edge="1" parent="1" source="YGWv3V7YIwNhVirVJVMV-98" target="YGWv3V7YIwNhVirVJVMV-102">
          <mxGeometry relative="1" as="geometry" />
        </mxCell>
        <mxCell id="YGWv3V7YIwNhVirVJVMV-98" value="保存父asin" style="whiteSpace=wrap;html=1;rounded=0;" vertex="1" parent="1">
          <mxGeometry x="1265" y="1060" width="120" height="60" as="geometry" />
        </mxCell>
        <mxCell id="YGWv3V7YIwNhVirVJVMV-100" value="t_amazon_listing" style="text;html=1;align=center;verticalAlign=middle;resizable=0;points=[];autosize=1;strokeColor=none;fillColor=none;" vertex="1" parent="1">
          <mxGeometry x="1265" y="1150" width="120" height="30" as="geometry" />
        </mxCell>
        <mxCell id="YGWv3V7YIwNhVirVJVMV-101" value="" style="endArrow=classic;html=1;rounded=0;" edge="1" parent="1" source="YGWv3V7YIwNhVirVJVMV-100" target="YGWv3V7YIwNhVirVJVMV-98">
          <mxGeometry width="50" height="50" relative="1" as="geometry">
            <mxPoint x="1370" y="1210" as="sourcePoint" />
            <mxPoint x="1420" y="1160" as="targetPoint" />
          </mxGeometry>
        </mxCell>
        <mxCell id="YGWv3V7YIwNhVirVJVMV-105" value="" style="edgeStyle=orthogonalEdgeStyle;rounded=0;orthogonalLoop=1;jettySize=auto;html=1;" edge="1" parent="1" source="YGWv3V7YIwNhVirVJVMV-102" target="YGWv3V7YIwNhVirVJVMV-104">
          <mxGeometry relative="1" as="geometry" />
        </mxCell>
        <mxCell id="YGWv3V7YIwNhVirVJVMV-102" value="自动生成SKU" style="rhombus;whiteSpace=wrap;html=1;rounded=0;" vertex="1" parent="1">
          <mxGeometry x="1485" y="1045" width="105" height="90" as="geometry" />
        </mxCell>
        <mxCell id="YGWv3V7YIwNhVirVJVMV-107" value="" style="edgeStyle=orthogonalEdgeStyle;rounded=0;orthogonalLoop=1;jettySize=auto;html=1;" edge="1" parent="1" source="YGWv3V7YIwNhVirVJVMV-104" target="YGWv3V7YIwNhVirVJVMV-106">
          <mxGeometry relative="1" as="geometry" />
        </mxCell>
        <mxCell id="YGWv3V7YIwNhVirVJVMV-104" value="自动生成sku" style="whiteSpace=wrap;html=1;rounded=0;" vertex="1" parent="1">
          <mxGeometry x="1662.5" y="1060" width="120" height="60" as="geometry" />
        </mxCell>
        <mxCell id="YGWv3V7YIwNhVirVJVMV-106" value="关联sku-listing" style="whiteSpace=wrap;html=1;rounded=0;" vertex="1" parent="1">
          <mxGeometry x="1862.5" y="1060" width="120" height="60" as="geometry" />
        </mxCell>
        <mxCell id="YGWv3V7YIwNhVirVJVMV-108" value="t_spu、t_sku" style="text;html=1;align=center;verticalAlign=middle;resizable=0;points=[];autosize=1;strokeColor=none;fillColor=none;" vertex="1" parent="1">
          <mxGeometry x="1662.5" y="1150" width="100" height="30" as="geometry" />
        </mxCell>
        <mxCell id="YGWv3V7YIwNhVirVJVMV-109" value="" style="endArrow=classic;html=1;rounded=0;" edge="1" parent="1" source="YGWv3V7YIwNhVirVJVMV-108" target="YGWv3V7YIwNhVirVJVMV-104">
          <mxGeometry width="50" height="50" relative="1" as="geometry">
            <mxPoint x="1840" y="1210" as="sourcePoint" />
            <mxPoint x="1890" y="1160" as="targetPoint" />
          </mxGeometry>
        </mxCell>
        <mxCell id="YGWv3V7YIwNhVirVJVMV-110" value="t_sku_listing" style="text;html=1;align=center;verticalAlign=middle;resizable=0;points=[];autosize=1;strokeColor=none;fillColor=none;" vertex="1" parent="1">
          <mxGeometry x="1877.5" y="1150" width="90" height="30" as="geometry" />
        </mxCell>
        <mxCell id="YGWv3V7YIwNhVirVJVMV-111" value="" style="endArrow=classic;html=1;rounded=0;exitX=0.522;exitY=0;exitDx=0;exitDy=0;exitPerimeter=0;" edge="1" parent="1" source="YGWv3V7YIwNhVirVJVMV-110" target="YGWv3V7YIwNhVirVJVMV-106">
          <mxGeometry width="50" height="50" relative="1" as="geometry">
            <mxPoint x="1840" y="1210" as="sourcePoint" />
            <mxPoint x="1890" y="1160" as="targetPoint" />
          </mxGeometry>
        </mxCell>
        <mxCell id="YGWv3V7YIwNhVirVJVMV-130" style="edgeStyle=orthogonalEdgeStyle;rounded=0;orthogonalLoop=1;jettySize=auto;html=1;exitX=1;exitY=0.5;exitDx=0;exitDy=0;entryX=0;entryY=0.5;entryDx=0;entryDy=0;" edge="1" parent="1" source="YGWv3V7YIwNhVirVJVMV-112" target="YGWv3V7YIwNhVirVJVMV-122">
          <mxGeometry relative="1" as="geometry" />
        </mxCell>
        <mxCell id="YGWv3V7YIwNhVirVJVMV-112" value="保存listing" style="rounded=0;whiteSpace=wrap;html=1;" vertex="1" parent="1">
          <mxGeometry x="1265" y="1210" width="120" height="60" as="geometry" />
        </mxCell>
        <mxCell id="YGWv3V7YIwNhVirVJVMV-115" value="this.region.getEndpoint() + &quot;/catalog/2022-04-01/items&quot;" style="text;html=1;align=center;verticalAlign=middle;resizable=0;points=[];autosize=1;strokeColor=none;fillColor=none;" vertex="1" parent="1">
          <mxGeometry x="945" y="1160" width="320" height="30" as="geometry" />
        </mxCell>
        <mxCell id="YGWv3V7YIwNhVirVJVMV-116" value="" style="endArrow=classic;html=1;rounded=0;" edge="1" parent="1" source="YGWv3V7YIwNhVirVJVMV-115" target="YGWv3V7YIwNhVirVJVMV-96">
          <mxGeometry width="50" height="50" relative="1" as="geometry">
            <mxPoint x="1430" y="1360" as="sourcePoint" />
            <mxPoint x="1480" y="1310" as="targetPoint" />
          </mxGeometry>
        </mxCell>
        <mxCell id="YGWv3V7YIwNhVirVJVMV-121" value="" style="edgeStyle=orthogonalEdgeStyle;rounded=0;orthogonalLoop=1;jettySize=auto;html=1;" edge="1" parent="1" source="YGWv3V7YIwNhVirVJVMV-122" target="YGWv3V7YIwNhVirVJVMV-124">
          <mxGeometry relative="1" as="geometry" />
        </mxCell>
        <mxCell id="YGWv3V7YIwNhVirVJVMV-122" value="自动生成SKU" style="rhombus;whiteSpace=wrap;html=1;rounded=0;" vertex="1" parent="1">
          <mxGeometry x="1485" y="1195" width="105" height="90" as="geometry" />
        </mxCell>
        <mxCell id="YGWv3V7YIwNhVirVJVMV-123" value="" style="edgeStyle=orthogonalEdgeStyle;rounded=0;orthogonalLoop=1;jettySize=auto;html=1;" edge="1" parent="1" source="YGWv3V7YIwNhVirVJVMV-124" target="YGWv3V7YIwNhVirVJVMV-125">
          <mxGeometry relative="1" as="geometry" />
        </mxCell>
        <mxCell id="YGWv3V7YIwNhVirVJVMV-124" value="自动生成sku" style="whiteSpace=wrap;html=1;rounded=0;" vertex="1" parent="1">
          <mxGeometry x="1662.5" y="1210" width="120" height="60" as="geometry" />
        </mxCell>
        <mxCell id="YGWv3V7YIwNhVirVJVMV-125" value="关联sku-listing" style="whiteSpace=wrap;html=1;rounded=0;" vertex="1" parent="1">
          <mxGeometry x="1862.5" y="1210" width="120" height="60" as="geometry" />
        </mxCell>
        <mxCell id="YGWv3V7YIwNhVirVJVMV-126" value="t_spu、t_sku" style="text;html=1;align=center;verticalAlign=middle;resizable=0;points=[];autosize=1;strokeColor=none;fillColor=none;" vertex="1" parent="1">
          <mxGeometry x="1662.5" y="1295" width="100" height="30" as="geometry" />
        </mxCell>
        <mxCell id="YGWv3V7YIwNhVirVJVMV-127" value="" style="endArrow=classic;html=1;rounded=0;" edge="1" parent="1" source="YGWv3V7YIwNhVirVJVMV-126" target="YGWv3V7YIwNhVirVJVMV-124">
          <mxGeometry width="50" height="50" relative="1" as="geometry">
            <mxPoint x="1840" y="1355" as="sourcePoint" />
            <mxPoint x="1890" y="1305" as="targetPoint" />
          </mxGeometry>
        </mxCell>
        <mxCell id="YGWv3V7YIwNhVirVJVMV-128" value="t_sku_listing" style="text;html=1;align=center;verticalAlign=middle;resizable=0;points=[];autosize=1;strokeColor=none;fillColor=none;" vertex="1" parent="1">
          <mxGeometry x="1877.5" y="1295" width="90" height="30" as="geometry" />
        </mxCell>
        <mxCell id="YGWv3V7YIwNhVirVJVMV-129" value="" style="endArrow=classic;html=1;rounded=0;exitX=0.522;exitY=0;exitDx=0;exitDy=0;exitPerimeter=0;" edge="1" parent="1" source="YGWv3V7YIwNhVirVJVMV-128" target="YGWv3V7YIwNhVirVJVMV-125">
          <mxGeometry width="50" height="50" relative="1" as="geometry">
            <mxPoint x="1840" y="1355" as="sourcePoint" />
            <mxPoint x="1890" y="1305" as="targetPoint" />
          </mxGeometry>
        </mxCell>
      </root>
    </mxGraphModel>
  </diagram>
</mxfile>
